<?xml version="1.0" ?><!DOCTYPE svg  PUBLIC '-//W3C//DTD SVG 1.1//EN'  'http://www.w3.org/Graphics/SVG/1.1/DTD/svg11.dtd'><svg enable-background="new 0 0 128 128" id="Слой_1" version="1.1" viewBox="0 0 128 128" xml:space="preserve" xmlns="http://www.w3.org/2000/svg" xmlns:xlink="http://www.w3.org/1999/xlink"><g><path d="M74,120H14c-5.5,0-10-4.5-10-10V63.4c0-5.5,4.5-10,10-10h60c5.5,0,10,4.5,10,10V110   C84,115.6,79.5,120,74,120z" fill="#FEF3E4"/></g><g><path d="M4,60v6.7h80V60c0-3.7-3-6.7-6.7-6.7H10.7C7,53.4,4,56.4,4,60z" fill="#F7F6F9"/></g><g opacity="0.15"><path d="M84,110V63.4c0-5.5-4.5-10-10-10H50l1.1,3.7c1,3.3,0.9,6.8-0.3,10l-8.2,21.9c-3.5,9.3-2.2,19.8,3.5,28   c0.8,1.1,1.6,2.1,2.5,3.1H74C79.5,120,84,115.6,84,110z" fill="#62345B"/></g><g><path d="M44,53.4H10.7C7,53.4,4,56.4,4,60v6.7h40V53.4z" fill="#D5D3DB"/></g><g><g><path d="M7.3,63.4c0-3.7,3-6.7,6.7-6.7l66.7-2c1,0,1.9,2.2,2.7,2.6c-1-2.3-3.4-3.9-6.1-3.9H10.7    C7,53.4,4,56.4,4,60v53.3c0,2.7,1.6,5,3.9,6.1c-0.4-0.8-2.6-1.8-2.6-2.7L7.3,63.4z" fill="#FFFFFF"/></g></g><g><circle cx="14.5" cy="60" fill="#FFFFFF" r="2.3"/></g><g><circle cx="23.8" cy="60" fill="#FFFFFF" r="2.3"/></g><g><circle cx="33.2" cy="60" fill="#FFFFFF" r="2.3"/></g><g><g><g><circle cx="44" cy="80" fill="#B09AAC" r="1"/></g><g><circle cx="44" cy="73.3" fill="#B09AAC" r="1"/></g><g><circle cx="44" cy="86.7" fill="#B09AAC" r="1"/></g><g><circle cx="44" cy="93.3" fill="#B09AAC" r="1"/></g><g><circle cx="44" cy="100" fill="#B09AAC" r="1"/></g><g><circle cx="44" cy="106.7" fill="#B09AAC" r="1"/></g><g><circle cx="44" cy="113.3" fill="#B09AAC" r="1"/></g></g><g><g><circle cx="49.3" cy="76.7" fill="#B09AAC" r="1"/></g><g><circle cx="49.3" cy="83.3" fill="#B09AAC" r="1"/></g><g><circle cx="49.3" cy="90" fill="#B09AAC" r="1"/></g><g><circle cx="49.3" cy="96.7" fill="#B09AAC" r="1"/></g><g><circle cx="49.3" cy="103.3" fill="#B09AAC" r="1"/></g><g><circle cx="49.3" cy="110" fill="#B09AAC" r="1"/></g></g><g><g><circle cx="54.7" cy="80" fill="#B09AAC" r="1"/></g><g><circle cx="54.7" cy="73.3" fill="#B09AAC" r="1"/></g><g><circle cx="54.7" cy="86.7" fill="#B09AAC" r="1"/></g><g><circle cx="54.7" cy="93.3" fill="#B09AAC" r="1"/></g><g><circle cx="54.7" cy="100" fill="#B09AAC" r="1"/></g><g><circle cx="54.7" cy="106.7" fill="#B09AAC" r="1"/></g><g><circle cx="54.7" cy="113.3" fill="#B09AAC" r="1"/></g></g><g><g><circle cx="60" cy="76.7" fill="#B09AAC" r="1"/></g><g><circle cx="60" cy="83.3" fill="#B09AAC" r="1"/></g><g><circle cx="60" cy="90" fill="#B09AAC" r="1"/></g><g><circle cx="60" cy="96.7" fill="#B09AAC" r="1"/></g><g><circle cx="60" cy="103.3" fill="#B09AAC" r="1"/></g><g><circle cx="60" cy="110" fill="#B09AAC" r="1"/></g></g><g><g><circle cx="65.3" cy="80" fill="#B09AAC" r="1"/></g><g><circle cx="65.3" cy="73.3" fill="#B09AAC" r="1"/></g><g><circle cx="65.3" cy="86.7" fill="#B09AAC" r="1"/></g><g><circle cx="65.3" cy="93.3" fill="#B09AAC" r="1"/></g><g><circle cx="65.3" cy="100" fill="#B09AAC" r="1"/></g><g><circle cx="65.3" cy="106.7" fill="#B09AAC" r="1"/></g><g><circle cx="65.3" cy="113.3" fill="#B09AAC" r="1"/></g></g><g><g><circle cx="70.7" cy="76.7" fill="#B09AAC" r="1"/></g><g><circle cx="70.7" cy="83.3" fill="#B09AAC" r="1"/></g><g><circle cx="70.7" cy="90" fill="#B09AAC" r="1"/></g><g><circle cx="70.7" cy="96.7" fill="#B09AAC" r="1"/></g><g><circle cx="70.7" cy="103.3" fill="#B09AAC" r="1"/></g><g><circle cx="70.7" cy="110" fill="#B09AAC" r="1"/></g></g><g><g><circle cx="76" cy="80" fill="#B09AAC" r="1"/></g><g><circle cx="76" cy="73.3" fill="#B09AAC" r="1"/></g><g><circle cx="76" cy="86.7" fill="#B09AAC" r="1"/></g><g><circle cx="76" cy="93.3" fill="#B09AAC" r="1"/></g><g><circle cx="76" cy="100" fill="#B09AAC" r="1"/></g><g><circle cx="76" cy="106.7" fill="#B09AAC" r="1"/></g><g><circle cx="76" cy="113.3" fill="#B09AAC" r="1"/></g></g><g><g><circle cx="12" cy="80" fill="#B09AAC" r="1"/></g><g><circle cx="12" cy="73.3" fill="#B09AAC" r="1"/></g><g><circle cx="12" cy="86.7" fill="#B09AAC" r="1"/></g><g><circle cx="12" cy="93.3" fill="#B09AAC" r="1"/></g><g><circle cx="12" cy="100" fill="#B09AAC" r="1"/></g><g><circle cx="12" cy="106.7" fill="#B09AAC" r="1"/></g><g><circle cx="12" cy="113.3" fill="#B09AAC" r="1"/></g></g><g><g><circle cx="17.3" cy="76.7" fill="#B09AAC" r="1"/></g><g><circle cx="17.3" cy="83.3" fill="#B09AAC" r="1"/></g><g><circle cx="17.3" cy="90" fill="#B09AAC" r="1"/></g><g><circle cx="17.3" cy="96.7" fill="#B09AAC" r="1"/></g><g><circle cx="17.3" cy="103.3" fill="#B09AAC" r="1"/></g><g><circle cx="17.3" cy="110" fill="#B09AAC" r="1"/></g></g><g><g><circle cx="22.7" cy="80" fill="#B09AAC" r="1"/></g><g><circle cx="22.7" cy="73.3" fill="#B09AAC" r="1"/></g><g><circle cx="22.7" cy="86.7" fill="#B09AAC" r="1"/></g><g><circle cx="22.7" cy="93.3" fill="#B09AAC" r="1"/></g><g><circle cx="22.7" cy="100" fill="#B09AAC" r="1"/></g><g><circle cx="22.7" cy="106.7" fill="#B09AAC" r="1"/></g><g><circle cx="22.7" cy="113.3" fill="#B09AAC" r="1"/></g></g><g><g><circle cx="28" cy="76.7" fill="#B09AAC" r="1"/></g><g><circle cx="28" cy="83.3" fill="#B09AAC" r="1"/></g><g><circle cx="28" cy="90" fill="#B09AAC" r="1"/></g><g><circle cx="28" cy="96.7" fill="#B09AAC" r="1"/></g><g><circle cx="28" cy="103.3" fill="#B09AAC" r="1"/></g><g><circle cx="28" cy="110" fill="#B09AAC" r="1"/></g></g><g><g><circle cx="33.3" cy="80" fill="#B09AAC" r="1"/></g><g><circle cx="33.3" cy="73.3" fill="#B09AAC" r="1"/></g><g><circle cx="33.3" cy="86.7" fill="#B09AAC" r="1"/></g><g><circle cx="33.3" cy="93.3" fill="#B09AAC" r="1"/></g><g><circle cx="33.3" cy="100" fill="#B09AAC" r="1"/></g><g><circle cx="33.3" cy="106.7" fill="#B09AAC" r="1"/></g><g><circle cx="33.3" cy="113.3" fill="#B09AAC" r="1"/></g></g><g><g><circle cx="38.7" cy="76.7" fill="#B09AAC" r="1"/></g><g><circle cx="38.7" cy="83.3" fill="#B09AAC" r="1"/></g><g><circle cx="38.7" cy="90" fill="#B09AAC" r="1"/></g><g><circle cx="38.7" cy="96.7" fill="#B09AAC" r="1"/></g><g><circle cx="38.7" cy="103.3" fill="#B09AAC" r="1"/></g><g><circle cx="38.7" cy="110" fill="#B09AAC" r="1"/></g></g></g><g><g><path d="M74,51.8H59.9c-0.3-0.5-0.5-0.9-0.8-1.3c-3.4-5-9-8-15.1-8c-6.7,0-12.7,3.6-15.9,9.3H14    C7.7,51.8,2.5,57,2.5,63.3V110c0,5.8,4.4,10.7,10,11.4v2.6c0,0.8,0.7,1.5,1.5,1.5s1.5-0.7,1.5-1.5v-2.5h57v2.5    c0,0.8,0.7,1.5,1.5,1.5s1.5-0.7,1.5-1.5v-2.6c5.6-0.7,10-5.6,10-11.4V63.3C85.5,57,80.3,51.8,74,51.8z M82.5,63.3v1.8h-37V54.8H74    C78.7,54.8,82.5,58.6,82.5,63.3z M44,45.5c4.9,0,9.5,2.4,12.3,6.3H31.7C34.5,47.9,39,45.5,44,45.5z M14,54.8h28.5v10.3h-37v-1.8    C5.5,58.6,9.3,54.8,14,54.8z M74,118.5H14c-4.7,0-8.5-3.8-8.5-8.5V68.2h77V110C82.5,114.7,78.7,118.5,74,118.5z" fill="#B09AAC"/></g><g><path d="M14.5,63.8c2.1,0,3.8-1.7,3.8-3.8s-1.7-3.8-3.8-3.8s-3.8,1.7-3.8,3.8S12.4,63.8,14.5,63.8z M14.5,59.2    c0.5,0,0.8,0.4,0.8,0.8s-0.4,0.8-0.8,0.8s-0.8-0.4-0.8-0.8S14,59.2,14.5,59.2z" fill="#B09AAC"/></g><g><path d="M23.8,63.8c2.1,0,3.8-1.7,3.8-3.8s-1.7-3.8-3.8-3.8S20,57.9,20,60S21.7,63.8,23.8,63.8z M23.8,59.2    c0.5,0,0.8,0.4,0.8,0.8s-0.4,0.8-0.8,0.8S23,60.5,23,60S23.4,59.2,23.8,59.2z" fill="#B09AAC"/></g><g><path d="M33.2,63.8c2.1,0,3.8-1.7,3.8-3.8s-1.7-3.8-3.8-3.8s-3.8,1.7-3.8,3.8S31.1,63.8,33.2,63.8z M33.2,59.2    c0.5,0,0.8,0.4,0.8,0.8s-0.4,0.8-0.8,0.8s-0.8-0.4-0.8-0.8S32.7,59.2,33.2,59.2z" fill="#B09AAC"/></g><g><path d="M58,63.5c0.8,0,1.5-0.7,1.5-1.5v-4c0-0.8-0.7-1.5-1.5-1.5s-1.5,0.7-1.5,1.5v4C56.5,62.8,57.2,63.5,58,63.5    z" fill="#B09AAC"/></g><g><path d="M64.7,63.5c0.8,0,1.5-0.7,1.5-1.5v-4c0-0.8-0.7-1.5-1.5-1.5s-1.5,0.7-1.5,1.5v4    C63.2,62.8,63.8,63.5,64.7,63.5z" fill="#B09AAC"/></g><g><path d="M71.3,63.5c0.8,0,1.5-0.7,1.5-1.5v-4c0-0.8-0.7-1.5-1.5-1.5s-1.5,0.7-1.5,1.5v4    C69.8,62.8,70.5,63.5,71.3,63.5z" fill="#B09AAC"/></g></g><g><g><g><path d="M77.4,30.2c0,3.1-2.6,5.6-5.7,5.6h-1c-5.8,0-10.4-4.7-10.4-10.4v-3.8c0-3.6-4.8-4.8-6.5-1.6     c-3.1,6-3.7,13.1-1.8,19.5l4.8,15.8c1.4,4.5,1.2,9.4-0.5,13.8L48.2,91c-6,16,5.8,33,22.9,33h13.5H98c17.1,0,28.9-17,22.9-33     l-8.3-19.9c-1.6-3.8-1.8-8-0.5-11.8l1.7-5.3c2.1-6.8,2.1-14.1,0-21h0c-0.9-2.8-4.9-2.1-4.9,0.8c0,6.9-5.6,12.6-12.6,12.6     c-2.5,0-4.5-2-4.5-4.4L90.9,6H78L77.4,30.2z" fill="#46B8C4"/></g></g><g><g><g><path d="M51.2,91l9.2-21.9c1.7-4.4,1.8-9.3,0.5-13.8l-4.8-15.8C53.8,32,54.7,26,57.8,19.9      c0.4-0.7-0.1-1.2,0.5-1.5c-1.5-0.7-3.6-0.3-4.5,1.5c-3.1,6-3.7,13-1.8,19.5l4.8,15.8c1.4,4.5,1.2,9.4-0.5,13.8L48.2,91      c-6,16,5.8,33,22.9,33h3C57,124,45.2,107,51.2,91z" fill="#FFFFFF"/></g></g></g><g><g><path d="M114.9,101.3c-0.9,0-1.7-0.3-2.4-0.8l-5.3-4c-3.2-2.4-7.1-3.8-11.1-3.8H78.6c-4.1,0-7.9-1.9-10.2-5     c-2.3-3.2-2.9-7.2-1.7-11l3.6-9.3c2.6-6.8,3.2-14.2,1.5-21.4l-0.2-0.8c-0.3-1.1,0-2.3,0.7-3.2c0.7-0.9,1.8-1.4,3-1.4     c0.6,0,1.2,0.2,1.8,0.4l4.5,2.4c3.7,2,11.4,5.8,14.6,5.8c3,0,6-0.9,8.5-2.5c0.7-0.5,1.5-0.7,2.3-0.7c1.3,0,2.6,0.6,3.5,1.7     c0.8,1.1,1.1,2.5,0.8,3.9c-0.1,0.4-0.2,0.9-0.4,1.3l-1.7,5.3c-1.4,4.6-1.2,9.5,0.6,13.9l8.3,19.8c0.7,1.8,1,3.7,0.8,5.6     C118.8,99.8,117,101.3,114.9,101.3z" fill="#FFFFFF"/></g></g><g><g><path d="M77.4,48.1c0,1.1,0.9,2,2,2h10.3c1.1,0,2-0.9,2-2L90.8,6H78.3L77.4,48.1z" fill="#FFE3C1"/></g></g><g><g><path d="M90.2,48.2c0,0.2-0.1,0.3-0.1,0.4c-0.1,0.1-0.2,0.2-0.4,0.2H79.4c-0.2,0-0.3-0.1-0.4-0.2     c-0.1-0.1-0.1-0.2-0.1-0.4L79.8,6h-3l-0.9,42.1c0,0.9,0.3,1.8,1,2.5c0.7,0.7,1.6,1.1,2.5,1.1h10.3c0.9,0,1.8-0.4,2.5-1.1     c0.7-0.7,1-1.6,1-2.5L92.3,6h-3L90.2,48.2z" fill="#62355C"/></g></g><g><g><rect fill="#62355C" height="3" width="11" x="79" y="11"/></g></g><g><g><rect fill="#62355C" height="3" width="12" x="78.5" y="34.5"/></g></g><g><g><rect fill="#62355C" height="3" width="12" x="78.5" y="39.5"/></g></g><g><g><rect fill="#62355C" height="3" width="13" x="78" y="17"/></g></g><g><g><rect fill="#62355C" height="3" width="13" x="78" y="23"/></g></g><g><g><rect fill="#62355C" height="3" width="13" x="78" y="29"/></g></g><g><g><rect fill="#62355C" height="3" width="13" x="78" y="44"/></g></g><g><g><path d="M98,125.5H71c-8.6,0-16.4-4.1-21.3-11.2c-4.9-7.1-6-15.8-3-23.9L55,68.6c1.5-4.1,1.7-8.7,0.4-12.9     l-4.8-15.8c-2.1-6.9-1.4-14.2,1.9-20.7c1.1-2.1,3.3-3.1,5.5-2.5c2.3,0.5,3.8,2.5,3.8,4.8v3.8c0,4.9,4,8.9,8.9,8.9h1     c2.4,0,4.5-1.9,4.6-4l3,0c-0.1,3.8-3.5,7-7.6,7h-1c-6.6,0-11.9-5.4-11.9-11.9v-3.8c0-1.1-0.8-1.7-1.5-1.9s-1.7,0-2.2,1     c-2.9,5.7-3.5,12.3-1.7,18.4l4.8,15.8c1.4,4.8,1.3,10.1-0.5,14.8l-8.2,21.9c-2.7,7.1-1.7,14.8,2.6,21.1     c4.3,6.3,11.2,9.9,18.8,9.9h27c7.6,0,14.5-3.6,18.8-9.9c4.3-6.3,5.3-14,2.6-21.1l-8.3-19.8c-1.7-4.1-1.9-8.7-0.6-12.9l1.7-5.3     c2.1-6.6,2.1-13.5,0-20.1c-0.2-0.8-0.9-0.7-1.1-0.7c-0.3,0-0.9,0.2-0.9,1c0,7.8-6.3,14.1-14.1,14.1c-3.4,0-6.1-2.6-6.2-5.9l3,0     c0,1.6,1.5,2.9,3.2,2.9c6.1,0,11.1-5,11.1-11.1c0-2,1.4-3.7,3.4-4c2-0.3,3.8,0.8,4.5,2.8c2.2,7.1,2.2,14.7,0,21.9l-1.7,5.3     c-1.1,3.5-0.9,7.4,0.5,10.8l8.3,19.9c3,8.1,2,16.8-2.9,23.9C114.4,121.4,106.7,125.5,98,125.5z" fill="#62355C"/></g></g><g><g><path d="M93,57.9H76c-0.8,0-1.5-0.7-1.5-1.5v0c0-0.8,0.7-1.5,1.5-1.5h17c0.8,0,1.5,0.7,1.5,1.5v0     C94.5,57.3,93.9,57.9,93,57.9z" fill="#7E7784"/></g></g><g><g><path d="M93,69.9H76c-0.8,0-1.5-0.7-1.5-1.5l0,0c0-0.8,0.7-1.5,1.5-1.5h17c0.8,0,1.5,0.7,1.5,1.5l0,0     C94.5,69.3,93.9,69.9,93,69.9z" fill="#7E7784"/></g></g><g><g><path d="M93,83.9H76c-0.8,0-1.5-0.7-1.5-1.5v0c0-0.8,0.7-1.5,1.5-1.5h17c0.8,0,1.5,0.7,1.5,1.5v0     C94.5,83.3,93.9,83.9,93,83.9z" fill="#7E7784"/></g></g><g><g><path d="M92.8,96.2l-16,2.4c-1.2,0.2-2.3-0.8-2.3-2v-5.7c0-1.1,0.9-2,2-2h16c1.1,0,2,0.9,2,2v3.3     C94.5,95.2,93.8,96.1,92.8,96.2z" fill="#ADA2B5"/></g></g><g><g><path d="M76.5,100.1c-1.9,0-3.5-1.6-3.5-3.5v-5.7c0-1.9,1.6-3.5,3.5-3.5h16c1.9,0,3.5,1.6,3.5,3.5v3.3     c0,1.7-1.3,3.2-3,3.5l-16,2.4C76.9,100.1,76.7,100.1,76.5,100.1z M76.5,90.4c-0.3,0-0.5,0.2-0.5,0.5v5.7c0,0.3,0.3,0.5,0.6,0.5     l16-2.4c0.2,0,0.4-0.2,0.4-0.5v-3.3c0-0.3-0.2-0.5-0.5-0.5H76.5z" fill="#62355C"/></g></g><g><g><circle cx="106.5" cy="88.8" fill="#7E7784" r="3"/></g></g><g><g><circle cx="113.5" cy="94.8" fill="#7E7784" r="3"/></g></g><g><g><path d="M95.9,93.9l-2.8-1.1l5.3-12.9c0.4-0.9,0.5-1.8,0.5-2.7V60.9h3v16.3c0,1.3-0.3,2.7-0.8,3.9L95.9,93.9z" fill="#62355C"/></g></g><g><g><circle cx="84.5" cy="27.5" fill="#FFFFFF" r="1"/></g></g><g><g><circle cx="84.5" cy="38.5" fill="#FFFFFF" r="1"/></g></g><g><g><circle cx="81.5" cy="15.5" fill="#FFFFFF" r="1"/></g></g><g><g><circle cx="87.5" cy="15.5" fill="#FFFFFF" r="1"/></g></g></g></svg>